<svg xmlns="http://www.w3.org/2000/svg" xmlns:xlink="http://www.w3.org/1999/xlink" width="24" height="24" viewBox="0 0 24 24">
  <defs>
    <polygon id="amex-color-24x24-a" points="0 0 20 0 20 12.56 0 12.56"/>
  </defs>
  <g fill="none" fill-rule="evenodd" transform="translate(2 6)">
    <mask id="amex-color-24x24-b" fill="#fff">
      <use xlink:href="#amex-color-24x24-a"/>
    </mask>
    <path fill="#076BD1" d="M20,7.61578133 L18.9752267,7.61578133 C18.8729067,7.61578133 18.80496,7.61959467 18.74768,7.65810133 C18.6883467,7.696048 18.66552,7.75234133 18.66552,7.826688 C18.66552,7.915088 18.7156267,7.97522133 18.78848,8.00119467 C18.8478133,8.02175467 18.91152,8.02775467 19.0051733,8.02775467 L19.30992,8.035888 C19.6174133,8.04343467 19.8226933,8.09610133 19.94784,8.224448 C19.9706133,8.24234133 19.98432,8.26239467 20,8.28247467 L20,7.61578133 Z M17.75712,8.224448 C17.8665867,8.33730133 17.9252533,8.479728 17.9252533,8.72087467 C17.9252533,9.224928 17.60904,9.460208 17.0419733,9.460208 L15.9468267,9.460208 L15.9468267,8.95778133 L17.0375733,8.95778133 C17.1442133,8.95778133 17.2198667,8.943728 17.2672533,8.89975467 C17.3059467,8.86354133 17.33368,8.81087467 17.33368,8.74695467 C17.33368,8.678688 17.3036533,8.62450133 17.26504,8.59199467 C17.2220533,8.55626133 17.1627467,8.53999467 17.0648267,8.53999467 C16.5390133,8.522128 15.8805067,8.55626133 15.8805067,7.81482133 C15.8805067,7.47498133 16.0949067,7.117248 16.6843733,7.117248 L17.8116267,7.117248 L17.8116267,7.61591467 L16.78016,7.61591467 C16.67792,7.61591467 16.61144,7.619728 16.5549067,7.65823467 C16.4933067,7.69618133 16.47048,7.75250133 16.47048,7.82682133 C16.47048,7.91522133 16.5227733,7.975328 16.5934933,8.001328 C16.6528,8.021888 16.7165067,8.02791467 16.81232,8.02791467 L17.1149867,8.036048 C17.42024,8.04343467 17.62976,8.09602133 17.75712,8.224448 L17.75712,8.224448 Z M12.68344,8.07975467 C12.60824,8.12418133 12.5152,8.12802133 12.4057867,8.12802133 L11.7227467,8.12802133 L11.7227467,7.601808 L12.4150667,7.601808 C12.5152,7.601808 12.6153867,7.60391467 12.68344,7.64410133 C12.7562933,7.682048 12.7998667,7.754608 12.7998667,7.85487467 C12.7998667,7.95514133 12.7562933,8.035888 12.68344,8.07975467 L12.68344,8.07975467 Z M13.0230133,8.37135467 C13.1481867,8.41735467 13.2505067,8.49978133 13.2984267,8.568048 C13.37784,8.682448 13.38936,8.78919467 13.3916267,8.995728 L13.3916267,9.460208 L12.82712,9.460208 L12.82712,9.16706133 C12.82712,9.02610133 12.84072,8.817408 12.7362133,8.708448 C12.6540533,8.62450133 12.5288267,8.604448 12.3237067,8.604448 L11.7228,8.604448 L11.7228,9.460208 L11.1578133,9.460208 L11.1578133,7.117168 L12.4559733,7.117168 C12.7406133,7.117168 12.9479467,7.12967467 13.1325067,7.227728 C13.3099467,7.33450133 13.4215733,7.480768 13.4215733,7.748048 C13.4214933,8.12199467 13.1710133,8.31287467 13.0230133,8.37135467 L13.0230133,8.37135467 Z M13.7333067,7.117168 L15.6099467,7.117168 L15.6099467,7.601728 L14.29328,7.601728 L14.29328,8.02767467 L15.5778133,8.02767467 L15.5778133,8.505728 L14.29328,8.505728 L14.29328,8.971888 L15.6099467,8.974048 L15.6099467,9.460208 L13.7333067,9.460208 L13.7333067,7.117168 Z M9.93968,8.19847467 L9.21306667,8.19847467 L9.21306667,7.601808 L9.94621333,7.601808 C10.1492267,7.601808 10.2901333,7.68415467 10.2901333,7.88906133 C10.2901333,8.09170133 10.1557333,8.19847467 9.93968,8.19847467 L9.93968,8.19847467 Z M8.65304,9.24711467 L7.78976,8.29271467 L8.65304,7.368608 L8.65304,9.24711467 Z M6.42362667,8.971888 L5.04117333,8.971888 L5.04117333,8.505728 L6.27562667,8.505728 L6.27562667,8.02767467 L5.04117333,8.02767467 L5.04117333,7.601728 L6.45088,7.601728 L7.06589333,8.284528 L6.42362667,8.971888 Z M10.8938133,7.88906133 C10.8938133,8.53991467 10.4061333,8.67431467 9.91464,8.67431467 L9.21306667,8.67431467 L9.21306667,9.460208 L8.12018667,9.460208 L7.42781333,8.68455467 L6.70829333,9.460208 L4.48109333,9.460208 L4.48109333,7.117168 L6.74256,7.117168 L7.43434667,7.88519467 L8.14954667,7.117168 L9.94621333,7.117168 C10.3924533,7.117168 10.8938133,7.24018133 10.8938133,7.88906133 L10.8938133,7.88906133 Z M20,9.16050133 C19.8634133,9.35938133 19.5972533,9.460208 19.2369867,9.460208 L18.15112,9.460208 L18.15112,8.95778133 L19.2325867,8.95778133 C19.33984,8.95778133 19.4149333,8.943728 19.4601333,8.89975467 C19.4993067,8.86354133 19.5266133,8.81087467 19.5266133,8.74695467 C19.5266133,8.678688 19.4993067,8.62450133 19.45792,8.59199467 C19.4171467,8.55626133 19.3577333,8.53999467 19.2598133,8.53999467 C18.7318667,8.522128 18.0732,8.55626133 18.0732,7.81482133 C18.0732,7.47498133 18.2898933,7.117248 18.8799467,7.117248 L20,7.117248 L20,6.65106133 L18.95936,6.65106133 C18.6453067,6.65106133 18.4172,6.725968 18.2556267,6.84239467 L18.2556267,6.65106133 L16.7164533,6.65106133 C16.47032,6.65106133 16.1814133,6.71183467 16.0447467,6.84239467 L16.0447467,6.65106133 L13.29616,6.65106133 L13.29616,6.84239467 C13.0774133,6.685248 12.7083467,6.65106133 12.5379733,6.65106133 L10.7250133,6.65106133 L10.7250133,6.84239467 C10.5519467,6.67551467 10.1670933,6.65106133 9.93253333,6.65106133 L7.90349333,6.65106133 L7.43917333,7.15143467 L7.00432,6.65106133 L3.97333333,6.65106133 L3.97333333,9.920368 L6.94725333,9.920368 L7.42568,9.41207467 L7.87637333,9.920368 L9.70952,9.92199467 L9.70952,9.152928 L9.88973333,9.152928 C10.13296,9.15666133 10.4198133,9.146928 10.6729067,9.037968 L10.6729067,9.92031467 L12.1849333,9.92031467 L12.1849333,9.068208 L12.2578667,9.068208 C12.3509333,9.068208 12.3601067,9.07202133 12.3601067,9.16466133 L12.3601067,9.92023467 L16.95328,9.92023467 C17.2449067,9.92023467 17.5497067,9.84591467 17.7185067,9.711008 L17.7185067,9.92023467 L19.1754667,9.92023467 C19.47864,9.92023467 19.77472,9.87791467 20,9.76954133 L20,9.16050133 Z M15.1542933,4.41994133 L14.7651733,3.486128 L14.3782133,4.41994133 L15.1542933,4.41994133 Z M18.5724267,5.43074133 L17.7756267,5.43074133 L16.70984,3.67258133 L16.70984,5.43074133 L15.5647467,5.43074133 L15.3459467,4.90823467 L14.17792,4.90823467 L13.9656267,5.43074133 L13.30768,5.43074133 C13.0343733,5.43074133 12.6883467,5.370528 12.4923467,5.171648 C12.2947467,4.97274133 12.1919467,4.70335467 12.1919467,4.27738133 C12.1919467,3.929968 12.2533867,3.612368 12.49504,3.361408 C12.6768267,3.17447467 12.9614933,3.08826133 13.34896,3.08826133 L13.8933067,3.08826133 L13.8933067,3.590208 L13.3604,3.590208 C13.1551733,3.590208 13.0393333,3.62058133 12.9277067,3.72895467 C12.8318667,3.82759467 12.7661067,4.014048 12.7661067,4.259568 C12.7661067,4.510528 12.81616,4.69146133 12.9206933,4.80967467 C13.0072533,4.90239467 13.16456,4.93050133 13.3125867,4.93050133 L13.5650667,4.93050133 L14.3575467,3.08834133 L15.2000533,3.08834133 L16.1520267,5.303968 L16.1520267,3.08834133 L17.0081333,3.08834133 L17.9965067,4.719728 L17.9965067,3.08834133 L18.5724267,3.08834133 L18.5724267,5.43074133 Z M11.3427733,5.43074133 L11.9165067,5.43074133 L11.9165067,3.088288 L11.3427733,3.088288 L11.3427733,5.43074133 Z M10.2814133,4.04810133 C10.2041333,4.09479467 10.1127467,4.09634133 10.00328,4.09634133 L9.32021333,4.09634133 L9.32021333,3.576048 L10.01256,3.576048 C10.11056,3.576048 10.2127733,3.580448 10.2792,3.61831467 C10.3521333,3.652448 10.3972533,3.72506133 10.3972533,3.825408 C10.3972533,3.92778133 10.3543467,4.01015467 10.2814133,4.04810133 L10.2814133,4.04810133 Z M11.0166933,3.71914133 C11.0166933,4.092608 10.7663467,4.285568 10.62048,4.34351467 C10.74352,4.390128 10.8485867,4.47250133 10.8986133,4.540768 C10.9780267,4.65727467 10.9917067,4.76135467 10.9917067,4.97055467 L10.9917067,5.43074133 L10.4245867,5.43074133 L10.4224533,5.135328 C10.4224533,4.994368 10.4360267,4.79167467 10.3337067,4.67898133 C10.2515467,4.59658133 10.1262933,4.57871467 9.92386667,4.57871467 L9.32026667,4.57871467 L9.32026667,5.43074133 L8.75805333,5.43074133 L8.75805333,3.08826133 L10.0513067,3.08826133 C10.33864,3.08826133 10.5504,3.095808 10.73216,3.20047467 C10.9100533,3.30511467 11.0166933,3.45786133 11.0166933,3.71914133 L11.0166933,3.71914133 Z M8.36832,5.43074133 L6.48997333,5.43074133 L6.48997333,3.08826133 L8.36832,3.08826133 L8.36832,3.576048 L7.05226667,3.576048 L7.05226667,3.998288 L8.33672,3.998288 L8.33672,4.478448 L7.05226667,4.478448 L7.05226667,4.94626133 L8.36832,4.94626133 L8.36832,5.43074133 Z M1.80328,4.41994133 L1.4184,3.486128 L1.03576,4.41994133 L1.80328,4.41994133 Z M6.07093333,5.43074133 L5.49450667,5.43074133 L5.49237333,3.596128 L4.67706667,5.43074133 L4.18336,5.43074133 L3.36592,3.59450133 L3.36592,5.43074133 L2.22229333,5.43074133 L2.00626667,4.90823467 L0.835546667,4.90823467 L0.61728,5.43074133 L0.00661333333,5.43074133 L1.01349333,3.08826133 L1.84888,3.08826133 L2.80517333,5.30610133 L2.80517333,3.08826133 L3.72288,3.08826133 L4.45874667,4.67735467 L5.13469333,3.08826133 L6.07085333,3.08826133 L6.07085333,5.43074133 L6.07093333,5.43074133 Z M0,5.89082133 L0.960773333,5.89082133 L1.17738667,5.370528 L1.66234667,5.370528 L1.8784,5.89082133 L3.76864,5.89082133 L3.76864,5.49303467 L3.93738667,5.892528 L4.91866667,5.892528 L5.08738667,5.48711467 L5.08738667,5.89082133 L9.78501333,5.89082133 L9.7828,5.036768 L9.87370667,5.036768 C9.93733333,5.03895467 9.95594667,5.04482133 9.95594667,5.14946133 L9.95594667,5.89082133 L12.3855733,5.89082133 L12.3855733,5.69199467 C12.5815467,5.79658133 12.8863467,5.89082133 13.28744,5.89082133 L14.3095733,5.89082133 L14.5283467,5.370528 L15.0133067,5.370528 L15.2272267,5.89082133 L17.19696,5.89082133 L17.19696,5.396608 L17.4952267,5.89082133 L19.0736533,5.89082133 L19.0736533,2.62378133 L17.5115467,2.62378133 L17.5115467,3.00962133 L17.2928,2.62378133 L15.6898933,2.62378133 L15.6898933,3.00962133 L15.48904,2.62378133 L13.32392,2.62378133 C12.9614933,2.62378133 12.6429067,2.67415467 12.3855733,2.81455467 L12.3855733,2.62378133 L10.8914667,2.62378133 L10.8914667,2.81455467 C10.72768,2.66986133 10.5045333,2.62378133 10.2564267,2.62378133 L4.79781333,2.62378133 L4.43157333,3.46759467 L4.05544,2.62378133 L2.33610667,2.62378133 L2.33610667,3.00962133 L2.14722667,2.62378133 L0.680933333,2.62378133 L0,4.17711467 L0,5.89082133 L0,5.89082133 Z M0,1.06679467 C0,0.477621333 0.477733333,-5.33333333e-06 1.06645333,-5.33333333e-06 L18.9335467,-5.33333333e-06 C19.5225333,-5.33333333e-06 20,0.477488 20,1.06679467 L20,11.4931947 C20,12.082368 19.5222933,12.5599947 18.9335467,12.5599947 L1.06645333,12.5599947 C0.477466667,12.5599947 0,12.0825013 0,11.4931947 L0,1.06679467 Z" mask="url(#amex-color-24x24-b)"/>
  </g>
</svg>
