<svg xmlns="http://www.w3.org/2000/svg" width="24" height="24" viewBox="0 0 24 24">
  <g fill="none" transform="translate(2 6)">
    <path fill="#0E4595" d="M0,1.06679388 C0,0.477619891 0.477715979,0 1.06645165,0 L18.9335483,0 C19.5225333,0 20,0.477505757 20,1.06679388 L20,11.4932061 C20,12.0823801 19.522284,12.56 18.9335483,12.56 L1.06645165,12.56 C0.477466667,12.56 0,12.0824942 0,11.4932061 L0,1.06679388 Z"/>
    <path fill="#FFF" d="M12.71172,3.58574667 C13.1944167,3.58574667 13.5929354,3.67264 13.8738873,3.76521427 L13.987,3.805 L13.79412,4.93644 L13.6666,4.8762 C13.4039867,4.77044 13.0669467,4.66897333 12.60164,4.6762 C12.0446,4.6762 11.7867867,4.90822667 11.7867867,5.12521333 C11.78356,5.36974667 12.0881467,5.53089333 12.5855067,5.77238667 C13.4064133,6.14494667 13.7855067,6.59689333 13.7801467,7.19073333 C13.7691067,8.27433333 12.79812,8.97425333 11.3024133,8.97425333 C10.7352074,8.96844593 10.1866063,8.8680344 9.83827974,8.74345798 L9.7174,8.69574667 L9.91710667,7.52710667 L10.1004667,7.61009333 C10.5677467,7.805 10.8703067,7.88412 11.4398267,7.88412 C11.8488133,7.88412 12.2875867,7.72425333 12.2911067,7.37433333 C12.2937467,7.14585333 12.1075333,6.98265333 11.5536933,6.72678667 C11.01396,6.47708 10.299,6.05862667 10.30692,5.30852 C10.3153467,4.29377333 11.3057467,3.58574667 12.71172,3.58574667 Z M17.63572,3.68145333 L18.7874,8.89844 L17.46708,8.89844 C17.46708,8.89844 17.33652,8.29894667 17.29396,8.1162 L16.9683494,8.11587952 C16.6948743,8.11554089 16.310102,8.11499856 15.9972058,8.11457661 L15.4716667,8.11396 C15.4219387,8.241064 15.2190667,8.7748096 15.1789895,8.88028768 L15.1720933,8.89844 L13.6779333,8.89844 L15.7911333,4.11436 C15.9241111,3.81218519 16.1402731,3.70516033 16.425891,3.68510758 L16.5362267,3.68145333 L17.63572,3.68145333 Z M9.71654667,3.67646667 L8.82630667,8.89678667 L7.40401333,8.89678667 L8.29364,3.67646667 L9.71654667,3.67646667 Z M3.52518667,3.67705333 C3.83422667,3.68857333 4.08404,3.78721333 4.17017333,4.11777333 L4.17017333,4.11777333 L4.66910667,6.51670667 L4.81753333,7.24014667 L6.2106,3.68028 L7.71782667,3.68028 L5.47772,8.89054667 L3.97225333,8.89228 L2.70722136,4.35824456 C2.26982527,4.11572648 1.77073209,3.92077435 1.2126,3.78566667 L1.2126,3.78566667 L1.23076,3.67705333 Z M16.6367067,5.08868 C16.56484,5.28468 16.43964,5.60081333 16.44804,5.58692 C16.44804,5.58692 16.0567137,6.59610803 15.9088586,6.97520629 L15.8811333,7.04617333 L17.06228,7.04617333 C17.0091422,6.80228711 16.7682626,5.70053067 16.7363815,5.55471375 L16.7328933,5.53876 L16.6367067,5.08868 Z"/>
  </g>
</svg>
