<svg version="1.1" xmlns="http://www.w3.org/2000/svg" viewBox="0 0 23 29">
  <path d="M9.30200913,19.1876287 C8.88664247,21.1889408 8.38632195,23.0769427 7.80103257,24.8516912 C7.21574318,26.6264396 6.22454216,28.0235611 4.82739976,29.0430974 C4.4120331,26.022249 4.55363324,23.3035262 5.25220444,20.8868474 C5.95077565,18.4701687 6.54549626,16.0535262 7.03638413,13.6368474 C6.20565081,12.239705 6.17733078,10.5405033 6.95142319,8.53919117 C7.72551561,6.53787908 8.99991692,5.89595841 10.7746654,6.61340992 C11.8319623,7.02877658 12.2662028,7.81229739 12.0773998,8.96399586 C11.8885967,10.1156943 11.5959564,11.3240156 11.1994701,12.5889959 C10.8029837,13.8539761 10.5669835,15.0150973 10.4914623,16.0723943 C10.415941,17.1296912 11.0578617,17.8093719 12.4172435,18.1114568 C13.8521465,18.375781 15.0510278,17.9981806 16.0139232,16.9786443 C16.9768186,15.9591079 17.6659393,14.6941466 18.081306,13.1837224 C18.4966727,11.6732982 18.6193928,10.1156966 18.4494701,8.51087086 C18.2795473,6.90604512 17.7603468,5.65052382 16.8918529,4.74426929 C15.6079923,3.46040871 14.1259108,2.77128799 12.4455638,2.67688648 C10.7652169,2.58248497 9.20761526,2.92232532 7.77271226,3.69641773 C6.33780925,4.47051014 5.16724804,5.5844313 4.26099351,7.03821461 C3.35473898,8.49199792 3.05265866,10.1439996 3.35474351,11.9942693 C3.50578593,12.8627632 3.84562628,13.570764 4.37427476,14.1182927 C4.90292323,14.6658215 4.80852314,15.5626224 4.09107163,16.8087224 C2.4673656,16.4311164 1.36288445,15.6475956 0.777595069,14.4581365 C0.192305684,13.2686774 -0.0625745792,11.8243559 0.0129466317,10.1251287 C0.126228448,7.33084386 1.19294955,5.02748148 3.21314194,3.21497242 C5.23333434,1.40246336 7.43285661,0.364062282 9.81177476,0.0997380433 C12.8703838,-0.240107406 15.6363067,0.288533141 18.1096263,1.68567554 C20.582946,3.08281795 22.0272675,5.21626015 22.4426341,8.08606617 C22.6691978,9.7097722 22.6125577,11.3240139 22.2727123,12.9288396 C21.9328668,14.5336653 21.3664662,15.9591068 20.5734935,17.2052068 C19.7805208,18.4513068 18.7515597,19.4330678 17.4865794,20.1505193 C16.2215992,20.8679708 14.7772777,21.1700511 13.1535716,21.0567693 C12.2850777,20.9812481 11.595957,20.7546878 11.0861888,20.3770818 C10.5764206,19.9994757 9.98170003,19.6029953 9.30200913,19.1876287 Z"></path>
</svg>
