<svg xmlns="http://www.w3.org/2000/svg" xmlns:xlink="http://www.w3.org/1999/xlink" width="24" height="24" viewBox="0 0 24 24">
  <defs>
    <polygon id="mastercard-color-24x24-a" points="0 .025 7.475 .025 7.475 9.265 0 9.265"/>
    <polygon id="mastercard-color-24x24-c" points=".022 .026 7.49 .026 7.49 9.263 .022 9.263"/>
  </defs>
  <g fill="none" fill-rule="evenodd" transform="translate(2 6)">
    <path fill="#000" fill-rule="nonzero" d="M1.06666667,0 L18.9333333,0 C19.5224371,0 20,0.477562933 20,1.06666667 L20,11.4933333 C20,12.0824371 19.5224371,12.56 18.9333333,12.56 L1.06666667,12.56 C0.477562933,12.56 0,12.0824371 0,11.4933333 L0,1.06666667 C0,0.477562933 0.477562933,0 1.06666667,0 Z"/>
    <g transform="translate(2.857 1.429)">
      <polygon fill="#FF5F00" points="5.268 8.283 9.721 8.283 9.721 1.019 5.268 1.019"/>
      <mask id="mastercard-color-24x24-b" fill="#fff">
        <use xlink:href="#mastercard-color-24x24-a"/>
      </mask>
      <path fill="#EB001B" d="M5.71729187,4.64465515 C5.71760172,3.22899058 6.36522922,1.8912235 7.47540795,1.01284714 C5.58132759,-0.476345967 2.86080252,-0.25988141 1.22607062,1.51010211 C-0.408692272,3.28008563 -0.408692272,6.00922466 1.22607062,7.77920818 C2.86080252,9.5491917 5.58132759,9.76565626 7.47540795,8.27643216 C6.36522922,7.39808679 5.71760172,6.06028873 5.71729187,4.64465515" mask="url(#mastercard-color-24x24-b)"/>
      <g transform="translate(7.468)">
        <mask id="mastercard-color-24x24-d" fill="#fff">
          <use xlink:href="#mastercard-color-24x24-c"/>
        </mask>
        <path fill="#F79E1B" d="M7.48997239,4.64465515 C7.49127252,6.41225279 6.4828501,8.02535683 4.89326404,8.79844453 C3.30367798,9.57153223 1.41216941,9.36882523 0.0224706694,8.27643216 C1.13295925,7.39833467 1.78064872,6.06038168 1.78064872,4.64465515 C1.78064872,3.22892861 1.13295925,1.89097562 0.0224706694,1.01284714 C1.41216941,-0.0795149364 3.30367798,-0.282252926 4.89326404,0.490865762 C6.4828501,1.26395347 7.49127252,2.87702652 7.48997239,4.64465515" mask="url(#mastercard-color-24x24-d)"/>
      </g>
    </g>
  </g>
</svg>
