<svg xmlns="http://www.w3.org/2000/svg" width="24" height="24" viewBox="0 0 24 24">
  <path fill="#989898" d="M0,1.06679388 C0,0.477619891 0.477715979,0 1.06645165,0 L18.9335483,0 C19.5225333,0 20,0.477505757 20,1.06679388 L20,11.4932061 C20,12.0823801 19.522284,12.56 18.9335483,12.56 L1.06645165,12.56 C0.477466667,12.56 0,12.0824942 0,11.4932061 L0,1.06679388 Z M13.987,3.805 C13.70508,3.69924 13.2633733,3.58574667 12.71172,3.58574667 C11.3057467,3.58574667 10.3153467,4.29377333 10.30692,5.30852 C10.299,6.05862667 11.01396,6.47708 11.5536933,6.72678667 C12.1075333,6.98265333 12.2937467,7.14585333 12.2911067,7.37433333 C12.2875867,7.72425333 11.8488133,7.88412 11.4398267,7.88412 C10.8703067,7.88412 10.5677467,7.805 10.1004667,7.61009333 L9.91710667,7.52710667 L9.7174,8.69574667 C10.0497467,8.84145333 10.6643067,8.96772 11.3024133,8.97425333 C12.79812,8.97425333 13.7691067,8.27433333 13.7801467,7.19073333 C13.7855067,6.59689333 13.4064133,6.14494667 12.5855067,5.77238667 C12.0881467,5.53089333 11.78356,5.36974667 11.7867867,5.12521333 C11.7867867,4.90822667 12.0446,4.6762 12.60164,4.6762 C13.0669467,4.66897333 13.4039867,4.77044 13.6666,4.8762 L13.79412,4.93644 L13.987,3.805 Z M17.63572,3.68145333 L16.5362267,3.68145333 C16.1956133,3.68145333 15.9407333,3.77441333 15.7911333,4.11436 L13.6779333,8.89844 L15.1720933,8.89844 C15.1720933,8.89844 15.4164133,8.25518667 15.4716667,8.11396 C15.6349467,8.11396 17.08644,8.1162 17.29396,8.1162 C17.33652,8.29894667 17.46708,8.89844 17.46708,8.89844 L18.7874,8.89844 L17.63572,3.68145333 Z M15.8811333,7.0462 C15.9988133,6.74542667 16.44804,5.58692 16.44804,5.58692 C16.43964,5.60081333 16.56484,5.28468 16.6367067,5.08868 L16.7328933,5.53876 C16.7328933,5.53876 17.0053467,6.78486667 17.06228,7.04617333 L15.8811333,7.04617333 L15.8811333,7.0462 Z M7.40401333,8.89678667 L8.82630667,8.89678667 L9.71654667,3.67646667 L8.29364,3.67646667 L7.40401333,8.89678667 Z M4.66902619,6.51644789 L4.17017333,4.11777333 C4.08404,3.78721333 3.83422667,3.68857333 3.52518667,3.67705333 L1.23076,3.67705333 L1.2126,3.78566667 C1.77073209,3.92077435 2.26982527,4.11572648 2.70722136,4.35824456 L3.97225333,8.89228 L5.47772,8.89054667 L7.71782667,3.68028 L6.2106,3.68028 L4.81753333,7.24014667 L4.66910667,6.51670667 C4.66907984,6.51662043 4.66905301,6.51653416 4.66902619,6.51644792 L4.66902619,6.51644789 Z" transform="translate(2 6)"/>
</svg>
