<svg xmlns="http://www.w3.org/2000/svg" xmlns:xlink="http://www.w3.org/1999/xlink" width="24" height="24" viewBox="0 0 24 24">
  <defs>
    <polygon id="discovercard-24x24-a" points="0 0 20 0 20 12.56 0 12.56"/>
  </defs>
  <g fill="none" fill-rule="evenodd" transform="translate(2 6)">
    <mask id="discovercard-24x24-b" fill="#fff">
      <use xlink:href="#discovercard-24x24-a"/>
    </mask>
    <path fill="#989898" d="M8.876056,5.05044267 L8.876056,5.04950933 C8.876056,4.24790933 9.567256,3.599056 10.419896,3.599056 C11.2725627,3.599056 11.9637893,4.24790933 11.9637893,5.04950933 L11.9637893,5.05044267 C11.9637893,5.85204267 11.2725627,6.501856 10.419896,6.501856 C9.567256,6.501856 8.876056,5.85204267 8.876056,5.05044267 L8.876056,5.05044267 Z M18.6799493,4.49222933 C18.6799493,3.981456 18.305816,3.68676267 17.652936,3.68676267 L16.8136293,3.68676267 L16.8136293,6.41500267 L17.3790427,6.41500267 L17.3790427,5.31902933 L17.4528027,5.31902933 L18.236296,6.41500267 L18.9324293,6.41500267 L18.0189093,5.265696 C18.4452827,5.18412267 18.6799493,4.90996267 18.6799493,4.49222933 L18.6799493,4.49222933 Z M17.5444293,4.942736 L17.3790427,4.942736 L17.3790427,4.116496 L17.5533893,4.116496 C17.905896,4.116496 18.097496,4.25540267 18.097496,4.52092267 C18.097496,4.79516267 17.905896,4.942736 17.5444293,4.942736 L17.5444293,4.942736 Z M14.833416,6.41500267 L16.438696,6.41500267 L16.438696,5.953136 L15.3990427,5.953136 L15.3990427,5.21668267 L16.400376,5.21668267 L16.400376,4.75460267 L15.3990427,4.75460267 L15.3990427,4.149056 L16.438696,4.149056 L16.438696,3.68676267 L14.833416,3.68676267 L14.833416,6.41500267 Z M13.179896,5.51510933 L12.405976,3.682576 L11.7876293,3.682576 L13.0191227,6.480816 L13.3237627,6.480816 L14.5774427,3.682576 L13.9638427,3.682576 L13.179896,5.51510933 Z M6.45018933,5.04542933 C6.45018933,5.84732267 7.11994933,6.46908267 7.98192267,6.46908267 C8.225656,6.46908267 8.43432267,6.424096 8.691736,6.31012267 L8.691736,5.68374933 C8.46536267,5.89662933 8.26490933,5.98254933 8.00826933,5.98254933 C7.438136,5.98254933 7.03352267,5.593936 7.03352267,5.04150933 C7.03352267,4.51766933 7.45104267,4.10446933 7.98192267,4.10446933 C8.25200267,4.10446933 8.45626933,4.19500267 8.691736,4.41140267 L8.691736,3.78532267 C8.443176,3.66684267 8.23888267,3.61772267 7.99536267,3.61772267 C7.13778933,3.61772267 6.45018933,4.25214933 6.45018933,5.04542933 L6.45018933,5.04542933 Z M5.436936,4.72710933 C5.097256,4.60894933 4.997496,4.53094933 4.997496,4.38358933 C4.997496,4.211776 5.17522933,4.08118933 5.41920267,4.08118933 C5.588776,4.08118933 5.72818933,4.146736 5.87562933,4.30212267 L6.17184267,3.937536 C5.92840267,3.737376 5.637256,3.63500267 5.319096,3.63500267 C4.80562933,3.63500267 4.41394933,3.97030933 4.41394933,4.41678933 C4.41394933,4.792656 4.59632267,4.98502933 5.12794933,5.16494933 C5.34954933,5.238416 5.46234933,5.28742933 5.51928267,5.32030933 C5.63234933,5.389776 5.68898933,5.488016 5.68898933,5.602576 C5.68898933,5.823616 5.50202933,5.98740267 5.249496,5.98740267 C4.979496,5.98740267 4.762056,5.860496 4.631656,5.62356267 L4.26602933,5.95462933 C4.52682933,6.31446933 4.84000267,6.473936 5.27072267,6.473936 C5.85896267,6.473936 6.271656,6.10630933 6.271656,5.57812267 C6.271656,5.14470933 6.08082933,4.94844267 5.436936,4.72710933 L5.436936,4.72710933 Z M3.48674933,6.41500267 L4.05280267,6.41500267 L4.05280267,3.68676267 L3.48674933,3.68676267 L3.48674933,6.41500267 Z M1.668376,3.68676267 L0.837496,3.68676267 L0.837496,6.41500267 L1.66400267,6.41500267 C2.103496,6.41500267 2.42090933,6.31750933 2.69946933,6.10006933 C3.030536,5.84246933 3.226296,5.454256 3.226296,5.05276267 C3.226296,4.247616 2.58640267,3.68676267 1.668376,3.68676267 L1.668376,3.68676267 Z M2.329656,5.73630933 C2.151816,5.88724267 1.920776,5.953136 1.55498933,5.953136 L1.40312267,5.953136 L1.40312267,4.149056 L1.55498933,4.149056 C1.920776,4.149056 2.142696,4.21060267 2.329656,4.36966933 C2.52544267,4.53356267 2.64320267,4.78748267 2.64320267,5.04886933 C2.64320267,5.31070933 2.52544267,5.572416 2.329656,5.73630933 L2.329656,5.73630933 Z M3.98482933,12.332976 L18.8496027,12.332976 C19.3504027,12.332976 19.7563493,11.9271093 19.7563493,11.426496 L19.7563493,6.642016 C19.7563493,6.642016 14.1863493,10.5734027 3.98482933,12.332976 L3.98482933,12.332976 Z M2.66666667e-06,11.493216 C2.66666667e-06,12.0823627 0.477736,12.5599893 1.066456,12.5599893 L18.9335493,12.5599893 C19.522536,12.5599893 20.0000027,12.082496 20.0000027,11.493216 L20.0000027,1.06678933 C20.0000027,0.477616 19.522296,-1.06666667e-05 18.9335493,-1.06666667e-05 L1.066456,-1.06666667e-05 C0.477469333,-1.06666667e-05 2.66666667e-06,0.477509333 2.66666667e-06,1.06678933 L2.66666667e-06,11.493216 Z" mask="url(#discovercard-24x24-b)"/>
  </g>
</svg>
