<svg version="1.1" xmlns="http://www.w3.org/2000/svg" viewBox="0 0 25 25">
  <path d="M16.5957031,12.4609375 C16.5957031,11.2903587 16.1897827,10.2991577 15.3779297,9.48730469 C14.5660767,8.67545167 13.5748756,8.26953125 12.4042969,8.26953125 C11.2714787,8.26953125 10.2991577,8.67545167 9.48730469,9.48730469 C8.67545167,10.2991577 8.26953125,11.2903587 8.26953125,12.4609375 C8.26953125,13.5937557 8.67545167,14.5660767 9.48730469,15.3779297 C10.2991577,16.1897827 11.2714787,16.5957031 12.4042969,16.5957031 C13.5748756,16.5957031 14.5660767,16.1897827 15.3779297,15.3779297 C16.1897827,14.5660767 16.5957031,13.5937557 16.5957031,12.4609375 Z M18.8046875,12.4609375 C18.8046875,14.1979254 18.1816469,15.6894469 16.9355469,16.9355469 C15.6894469,18.1816469 14.1790453,18.8046875 12.4042969,18.8046875 C10.667309,18.8046875 9.17578748,18.1816469 7.9296875,16.9355469 C6.68358752,15.6894469 6.06054687,14.1979254 6.06054687,12.4609375 C6.06054687,10.686189 6.68358752,9.17578748 7.9296875,7.9296875 C9.17578748,6.68358752 10.667309,6.06054687 12.4042969,6.06054687 C14.1790453,6.06054687 15.6894469,6.68358752 16.9355469,7.9296875 C18.1816469,9.17578748 18.8046875,10.686189 18.8046875,12.4609375 Z M20.5605469,5.77734375 C20.5605469,6.19271041 20.4095067,6.55143078 20.1074219,6.85351562 C19.805337,7.15560047 19.4654967,7.30664062 19.0878906,7.30664062 C18.672524,7.30664062 18.3138036,7.15560047 18.0117188,6.85351562 C17.7096339,6.55143078 17.5585938,6.19271041 17.5585938,5.77734375 C17.5585938,5.3997377 17.7096339,5.05989734 18.0117188,4.7578125 C18.3138036,4.45572766 18.672524,4.3046875 19.0878906,4.3046875 C19.4654967,4.3046875 19.805337,4.45572766 20.1074219,4.7578125 C20.4095067,5.05989734 20.5605469,5.3997377 20.5605469,5.77734375 Z M16.1425781,2.265625 L8.69433594,2.265625 C7.12727081,2.265625 5.92838957,2.41666516 5.09765625,2.71875 C4.83333201,2.83203182 4.58789176,2.96419195 4.36132812,3.11523438 C4.13476449,3.2662768 3.90820426,3.45507699 3.68164062,3.68164062 C3.45507699,3.90820426 3.2662768,4.13476449 3.11523438,4.36132812 C2.96419195,4.58789176 2.83203182,4.83333201 2.71875,5.09765625 C2.41666516,5.92838957 2.25618499,7.13671082 2.23730469,8.72265625 C2.21842438,10.3086017 2.20898438,11.554683 2.20898438,12.4609375 C2.20898438,13.367192 2.21842438,14.6038333 2.23730469,16.1708984 C2.25618499,17.7379636 2.41666516,18.9368448 2.71875,19.7675781 C2.83203182,20.0319024 2.96419195,20.2773426 3.11523438,20.5039062 C3.2662768,20.7304699 3.45507699,20.9570301 3.68164062,21.1835938 C3.90820426,21.4101574 4.12532448,21.5989576 4.33300781,21.75 C4.54069114,21.9010424 4.79557141,22.0332026 5.09765625,22.1464844 C5.92838957,22.4485692 7.12727081,22.6090494 8.69433594,22.6279297 C10.2614011,22.64681 11.4980423,22.65625 12.4042969,22.65625 C13.3105514,22.65625 14.5566327,22.64681 16.1425781,22.6279297 C17.7285236,22.6090494 18.9368448,22.4485692 19.7675781,22.1464844 C20.0319024,22.0332026 20.2773426,21.9010424 20.5039062,21.75 C20.7304699,21.5989576 20.9570301,21.4101574 21.1835938,21.1835938 C21.4101574,20.9570301 21.5989576,20.7304699 21.75,20.5039062 C21.9010424,20.2773426 22.0332026,20.0319024 22.1464844,19.7675781 C22.4485692,18.9368448 22.5996094,17.7379636 22.5996094,16.1708984 L22.5996094,8.72265625 C22.5996094,7.13671082 22.4485692,5.92838957 22.1464844,5.09765625 C22.0332026,4.83333201 21.9010424,4.58789176 21.75,4.36132812 C21.5989576,4.13476449 21.4101574,3.90820426 21.1835938,3.68164062 C20.9570301,3.45507699 20.7304699,3.2662768 20.5039062,3.11523438 C20.2773426,2.96419195 20.0319024,2.83203182 19.7675781,2.71875 C18.9368448,2.41666516 17.7285236,2.265625 16.1425781,2.265625 Z M24.8652344,9.88378906 L24.8652344,14.9814453 C24.8652344,15.8310589 24.8274743,16.6900998 24.7519531,17.5585938 C24.7141925,18.5781301 24.5537124,19.5221311 24.2705078,20.390625 C23.9873033,21.2591189 23.4869828,22.0520797 22.7695312,22.7695312 C22.0520797,23.4869828 21.2496789,23.9873033 20.3623047,24.2705078 C19.4749305,24.5537124 18.5403695,24.7330725 17.5585938,24.8085938 C16.6900998,24.8463544 15.8310589,24.8652344 14.9814453,24.8652344 L9.88378906,24.8652344 C9.03417544,24.8652344 8.17513455,24.8463544 7.30664062,24.8085938 C6.28710428,24.7330725 5.3431033,24.5537124 4.47460938,24.2705078 C3.60611545,23.9873033 2.81315463,23.4869828 2.09570312,22.7695312 C1.37825162,22.0520797 0.877931104,21.2591189 0.594726562,20.390625 C0.311522021,19.5221311 0.132161836,18.5781301 0.056640625,17.5585938 C0.0188800195,16.6900998 0,15.8310589 0,14.9814453 L0,9.88378906 C0,9.03417544 0.0188800195,8.17513455 0.056640625,7.30664062 C0.132161836,6.32486488 0.311522021,5.39030392 0.594726562,4.50292969 C0.877931104,3.61555546 1.37825162,2.81315463 2.09570312,2.09570312 C2.81315463,1.37825162 3.60611545,0.877931104 4.47460938,0.594726562 C5.3431033,0.311522021 6.28710428,0.151041855 7.30664062,0.11328125 C8.17513455,0.0377600391 9.03417544,0 9.88378906,0 L14.9814453,0 C15.8310589,0 16.6900998,0.0377600391 17.5585938,0.11328125 C18.5403695,0.151041855 19.4749305,0.311522021 20.3623047,0.594726562 C21.2496789,0.877931104 22.0520797,1.37825162 22.7695312,2.09570312 C23.4869828,2.81315463 23.9873033,3.61555546 24.2705078,4.50292969 C24.5537124,5.39030392 24.7141925,6.32486488 24.7519531,7.30664062 C24.8274743,8.17513455 24.8652344,9.03417544 24.8652344,9.88378906 Z"></path>
</svg>
