<svg xmlns="http://www.w3.org/2000/svg" width="24" height="24" viewBox="0 0 24 24">
  <g fill="none" fill-rule="evenodd" transform="translate(2 6)">
    <path fill="#4D4D4D" d="M1.41005333,0 C0.63144,0 0,0.617466667 0,1.37893333 L0,11.1810667 C0,11.9426933 0.631253333,12.56 1.41005333,12.56 L18.5899467,12.56 C19.3685333,12.56 20,11.94256 20,11.1810667 L20,6.73269333 L20,1.37893333 C20,0.617306667 19.3687467,0 18.5899467,0 L1.41005333,0 Z"/>
    <path fill="#FFF" d="M2.254856,4.558424 L2.254856,6.255544 L2.39618933,6.255544 C2.73650933,6.255544 2.95146933,6.19357067 3.116936,6.05159733 C3.299096,5.897384 3.40866933,5.65119733 3.40866933,5.404904 C3.40866933,5.15901067 3.299096,4.92015733 3.116936,4.76597067 C2.94298933,4.616344 2.73650933,4.558424 2.39618933,4.558424 L2.254856,4.558424 Z M17.1193893,4.527784 L17.1193893,5.305064 L17.2732827,5.305064 C17.6096027,5.305064 17.7878693,5.16623733 17.7878693,4.908264 C17.7878693,4.65847733 17.609576,4.527784 17.281576,4.527784 L17.1193893,4.527784 Z M16.5933627,4.123544 L17.3742427,4.123544 C17.9816827,4.123544 18.3297627,4.40079733 18.3297627,4.881304 C18.3297627,5.27423733 18.1114693,5.53213067 17.7147493,5.60887733 L18.5647227,6.69007733 L17.917016,6.69007733 L17.188056,5.65903733 L17.1193893,5.65903733 L17.1193893,6.69007733 L16.5933627,6.69007733 L16.5933627,4.123544 Z M14.750856,4.123544 L16.2444827,4.123544 L16.2444827,4.558424 L15.2771227,4.558424 L15.2771227,5.12807733 L16.2088293,5.12807733 L16.2088293,5.56277067 L15.2771227,5.56277067 L15.2771227,6.255544 L16.2444827,6.255544 L16.2444827,6.69007733 L14.750856,6.69007733 L14.750856,4.123544 Z M4.19354933,6.69007733 L4.72024267,6.69007733 L4.72024267,4.123544 L4.19354933,4.123544 L4.19354933,6.69007733 Z M1.72856267,4.123544 L2.501656,4.123544 C3.35578933,4.123544 3.95122933,4.65117067 3.95122933,5.40861067 C3.95122933,5.786264 3.76906933,6.15143733 3.46104267,6.393784 C3.20184267,6.598344 2.90650933,6.69007733 2.49760267,6.69007733 L1.72856267,6.69007733 L1.72856267,4.123544 Z M11.9169893,4.11959733 L12.492296,4.11959733 L13.2124027,5.843464 L13.941736,4.11959733 L14.512696,4.11959733 L13.3461893,6.751944 L13.0628027,6.751944 L11.9169893,4.11959733 Z M5.89842933,4.07485067 C6.19448267,4.07485067 6.46538933,4.17117067 6.69186933,4.359464 L6.41626933,4.702424 C6.27906933,4.556264 6.14930933,4.49461067 5.99152267,4.49461067 C5.764536,4.49461067 5.59920267,4.61743733 5.59920267,4.779064 C5.59920267,4.91767733 5.69202933,4.991064 6.008056,5.10221067 C6.60714933,5.310424 6.784696,5.495064 6.784696,5.90279733 C6.784696,6.399624 6.40072267,6.74549067 5.853416,6.74549067 C5.45264267,6.74549067 5.16128267,6.595464 4.918616,6.25695733 L5.25880267,5.94551733 C5.380136,6.168424 5.582456,6.28781067 5.83368267,6.28781067 C6.06864267,6.28781067 6.24258933,6.13373067 6.24258933,5.925784 C6.24258933,5.81799733 6.189896,5.72559733 6.084696,5.66023733 C6.03170933,5.629304 5.926776,5.58317067 5.72058933,5.51407733 C5.22594933,5.344824 5.05624267,5.16389067 5.05624267,4.81031733 C5.05624267,4.39029067 5.420696,4.07485067 5.89842933,4.07485067 L5.89842933,4.07485067 Z M8.38850933,4.05861067 C8.615096,4.05861067 8.80512267,4.104824 9.03640267,4.216264 L9.03640267,4.80525067 C8.817336,4.601704 8.62730933,4.516504 8.37600267,4.516504 C7.882056,4.516504 7.49360267,4.90517067 7.49360267,5.39797067 C7.49360267,5.91765067 7.87002933,6.28319733 8.40048267,6.28319733 C8.63928267,6.28319733 8.82578933,6.202424 9.03640267,6.00213067 L9.03640267,6.59143733 C8.79690933,6.69861067 8.602776,6.74093067 8.37600267,6.74093067 C7.57400267,6.74093067 6.95082933,6.15599733 6.95082933,5.401624 C6.95082933,4.655384 7.59058933,4.05861067 8.38850933,4.05861067 L8.38850933,4.05861067 Z"/>
    <path fill="#F47216" d="M19.9995307,7.229168 C19.331584,7.68871467 14.3308907,10.973088 5.67251733,12.5596213 L18.5894773,12.5596213 C19.368064,12.5596213 19.9995307,11.942128 19.9995307,11.1806613 L19.9995307,7.229168 Z M10.644384,4.04159467 C11.4377173,4.04159467 12.0808373,4.63274133 12.0808373,5.363008 L12.0808373,5.36383467 C12.0808373,6.09410133 11.4377173,6.68607467 10.644384,6.68607467 C9.85105067,6.68607467 9.20793067,6.09410133 9.20793067,5.36383467 L9.20793067,5.363008 C9.20793067,4.63274133 9.85105067,4.04159467 10.644384,4.04159467 L10.644384,4.04159467 Z"/>
  </g>
</svg>
