<svg version="1.1" xmlns="http://www.w3.org/2000/svg" viewBox="0 0 27 25">
  <path d="M6.03947405,8.24911607 L6.10978655,8.24911607 C6.13322416,8.57724271 6.15080211,8.8936458 6.16252092,9.19833482 C6.17423973,9.50302384 6.20353631,9.8077083 6.25041155,10.1123973 C6.25041155,10.253023 6.22697428,10.3526314 6.18009905,10.4112254 C6.13322381,10.4698195 6.05119338,10.4991161 5.9340053,10.4991161 C5.69962912,10.4756785 5.47111578,10.4405226 5.24845842,10.3936473 C5.02580106,10.3467721 4.82072498,10.2881789 4.63322405,10.2178661 C4.39884787,10.1475532 4.17033453,10.1182566 3.94767717,10.1299754 C3.72501981,10.1416943 3.5082251,10.2061467 3.29728655,10.3233348 C2.94572229,10.5108358 2.75236485,10.7627864 2.71720842,11.0791942 C2.682052,11.395602 2.81681627,11.6709899 3.1215053,11.9053661 C3.33244385,12.0459918 3.54923856,12.1690374 3.77189592,12.2745067 C3.99455328,12.379976 4.22306662,12.4795844 4.4574428,12.5733348 C4.62150612,12.6436477 4.79142629,12.7081002 4.96720842,12.7666942 C5.14299055,12.8252882 5.31291073,12.9014594 5.47697405,12.9952098 C5.75822545,13.1358355 5.93986426,13.311615 6.02189592,13.5225536 C6.10392758,13.7334921 6.074631,13.991302 5.9340053,14.2959911 C5.3949401,15.4678719 4.69768145,16.4756744 3.84220842,17.3194286 C2.98673539,18.1631828 1.87932459,18.7256772 0.519942796,19.0069286 C0.285566624,19.0538038 0.127365081,19.1709901 0.0453334209,19.3584911 C-0.0366982393,19.545992 -0.00740165725,19.7452088 0.133224046,19.9561473 C0.226974515,20.0733354 0.344160843,20.1905217 0.484786546,20.3077098 C0.625412249,20.4248979 0.766035843,20.5069283 0.906661546,20.5538036 C1.2582258,20.6944293 1.60978479,20.8116156 1.96134905,20.9053661 L3.01603655,21.1866161 C3.34416319,21.2569289 3.53752063,21.3213814 3.59611467,21.3799754 C3.65470871,21.4385695 3.71916119,21.6202083 3.78947405,21.9248973 C3.90666213,22.4874001 4.04728573,22.8213812 4.21134905,22.9268504 C4.37541237,23.0323197 4.75040862,23.0264604 5.33634905,22.9092723 C6.0863528,22.7686466 6.81290803,22.7510687 7.51603655,22.8565379 C8.21916506,22.9620072 8.88712713,23.272551 9.5199428,23.7881786 C9.73088135,23.9522419 9.95353537,24.1104434 10.1879115,24.2627879 C10.4222877,24.4151325 10.6566604,24.5498967 10.8910365,24.6670848 C11.7582284,25.1123995 12.6254072,25.3350536 13.492599,25.3350536 C14.3597909,25.3350536 15.2152511,25.1123995 16.0590053,24.6670848 C16.3871319,24.5030215 16.6976757,24.3213827 16.9906459,24.1221629 C17.2836161,23.9229432 17.5824413,23.7178671 17.8871303,23.5069286 C18.2855698,23.2022395 18.7191592,22.9971635 19.1879115,22.8916942 C19.6566639,22.7862249 20.1371278,22.7569283 20.6293178,22.8038036 C20.8871316,22.8272412 21.1449415,22.8565378 21.4027553,22.8916942 C21.6605691,22.9268506 21.9066604,22.9561472 22.1410365,22.9795848 C22.422288,23.0264601 22.627364,23.0030228 22.7562709,22.9092723 C22.8851778,22.8155219 22.9847862,22.6397424 23.055099,22.3819286 C23.0785367,22.2647405 23.1078332,22.1416948 23.1429897,22.0127879 C23.1781461,21.8838811 23.2074427,21.7491168 23.2308803,21.6084911 C23.2543179,21.491303 23.2953331,21.4034132 23.3539272,21.3448192 C23.4125212,21.2862252 23.500411,21.2452099 23.617599,21.2217723 C24.0394762,21.1280219 24.4613469,21.0225542 24.883224,20.9053661 C25.3051012,20.788178 25.7269719,20.659273 26.148849,20.5186473 C26.2660371,20.4717721 26.3773641,20.4014603 26.4828334,20.3077098 C26.5883027,20.2139594 26.6879111,20.1202103 26.7816615,20.0264598 C26.9222872,19.8389589 26.9633025,19.6221642 26.9047084,19.3760692 C26.8461144,19.1299742 26.6761942,18.9952099 26.3949428,18.9717723 C26.3246299,18.9717723 26.2484588,18.9600537 26.1664272,18.9366161 C26.0843955,18.9131785 26.0082244,18.9014598 25.9379115,18.9014598 C24.7191555,18.5264579 23.711353,17.9288077 22.914474,17.1084911 C22.1175951,16.2881745 21.4730703,15.3155279 20.9808803,14.1905223 C20.8871298,13.9327085 20.8695519,13.7100545 20.9281459,13.5225536 C20.98674,13.3350526 21.1332229,13.1827104 21.367599,13.0655223 C21.5551,12.9717719 21.7425981,12.8897414 21.930099,12.8194286 C22.1176,12.7491157 22.3050981,12.6670853 22.492599,12.5733348 C22.7269752,12.4561467 22.9672072,12.3448197 23.2133022,12.2393504 C23.4593972,12.1338812 23.6879105,11.9991169 23.898849,11.8350536 C24.1566628,11.624115 24.2679898,11.3721644 24.2328334,11.0791942 C24.197677,10.786224 24.0394755,10.545992 23.758224,10.3584911 C23.5238479,10.2178654 23.2777566,10.1299756 23.0199428,10.0948192 C22.762129,10.0596628 22.5043191,10.100678 22.2465053,10.2178661 C22.0590044,10.2881789 21.8715062,10.3467721 21.6840053,10.3936473 C21.4965044,10.4405226 21.3090062,10.4756785 21.1215053,10.4991161 C20.9808796,10.5225537 20.8754119,10.4991164 20.805099,10.4288036 C20.7347862,10.3584907 20.6996303,10.2295858 20.6996303,10.0420848 C20.7465055,9.50301962 20.7816614,8.9581032 20.805099,8.4073192 C20.8285367,7.85653519 20.8402553,7.29990013 20.8402553,6.73739732 C20.8402553,5.68270455 20.6293199,4.72177666 20.2074428,3.85458482 C19.7855657,2.98739298 19.1644781,2.23740048 18.3441615,1.60458482 C17.1254055,0.69051775 15.8480745,0.16903859 14.5121303,0.0401316951 C13.1761861,-0.0887751995 11.8168247,0.0928636091 10.4340053,0.58505357 C9.35587491,0.960055445 8.47111813,1.53426845 7.77970842,2.30770982 C7.08829871,3.08115119 6.60197545,4.01864181 6.32072405,5.12020982 C6.20353596,5.61239978 6.13908348,6.12801962 6.12736467,6.66708482 C6.11564586,7.20615002 6.08634928,7.73348849 6.03947405,8.24911607 Z"></path>
</svg>
