<svg xmlns="http://www.w3.org/2000/svg" width="24" height="24" viewBox="0 0 24 24">
  <path fill="#989898" d="M18.5714286,0 C19.3604068,-2.02514861e-15 20,0.639593215 20,1.42857143 L20,12.8571429 C20,13.6461211 19.3604068,14.2857143 18.5714286,14.2857143 L1.42857143,14.2857143 C0.639593215,14.2857143 -1.2542264e-16,13.6461211 0,12.8571429 L0,1.42857143 C-9.66219644e-17,0.639593215 0.639593215,-7.71116583e-17 1.42857143,0 L18.5714286,0 Z M19.047,4.761 L0.952,4.761 L0.952380952,12.6190476 C0.952380952,12.9806626 1.22109893,13.2795152 1.56974233,13.3268127 L1.66666667,13.3333333 L18.3333333,13.3333333 C18.6949483,13.3333333 18.9938009,13.0646154 19.0410985,12.715972 L19.047619,12.6190476 L19.047,4.761 Z M15.2380952,5.23809524 C17.0790444,5.23809524 18.5714286,6.73047941 18.5714286,8.57142857 C18.5714286,10.4123777 17.0790444,11.9047619 15.2380952,11.9047619 C13.3971461,11.9047619 11.9047619,10.4123777 11.9047619,8.57142857 C11.9047619,6.73047941 13.3971461,5.23809524 15.2380952,5.23809524 Z M15.2380952,6.19047619 C13.9231315,6.19047619 12.8571429,7.25646488 12.8571429,8.57142857 C12.8571429,9.88639226 13.9231315,10.952381 15.2380952,10.952381 C16.5530589,10.952381 17.6190476,9.88639226 17.6190476,8.57142857 C17.6190476,7.25646488 16.5530589,6.19047619 15.2380952,6.19047619 Z M11.4285714,7.61904762 L11.4285714,8.57142857 L2.85714286,8.57142857 L2.85714286,7.61904762 L11.4285714,7.61904762 Z M17.1428571,7.61904762 L17.1428571,8.57142857 L13.3333333,8.57142857 L13.3333333,7.61904762 L17.1428571,7.61904762 Z M18.3333333,0.952380952 L1.66666667,0.952380952 C1.30505165,0.952380952 1.00619908,1.22109893 0.958901539,1.56974233 L0.952380952,1.66666667 L0.952,2.857 L19.047,2.857 L19.047619,1.66666667 C19.047619,1.27217756 18.7278224,0.952380952 18.3333333,0.952380952 Z" transform="translate(2 5)"/>
</svg>
