<svg xmlns="http://www.w3.org/2000/svg" width="24" height="24" viewBox="0 0 24 24">
  <path fill="#989898" d="M18.9333333,0 C19.5224371,0 20,0.477562933 20,1.06666667 L20,11.4933333 C20,12.0824371 19.5224371,12.56 18.9333333,12.56 L1.06666667,12.56 C0.477562933,12.56 0,12.0824371 0,11.4933333 L0,1.06666667 C0,0.477562933 0.477562933,0 1.06666667,0 L18.9333333,0 Z M12.758373,1.66666667 C11.8447619,1.66666667 10.995119,1.94044753 10.2878571,2.40941924 C10.3239683,2.43869787 10.3605952,2.4679765 10.3956746,2.49828245 C11.4470238,3.40951555 12.0500794,4.72602652 12.0500794,6.11085428 C12.0500794,7.4961957 11.4470238,8.81322033 10.3956746,9.72393977 C10.3605952,9.75424572 10.3239683,9.78301069 10.2878571,9.81280298 C10.995119,10.2817747 11.8447619,10.5555556 12.758373,10.5555556 C15.2237302,10.5555556 17.2222222,8.56563614 17.2222222,6.11085428 C17.2222222,3.65658609 15.2237302,1.66666667 12.758373,1.66666667 Z M7.24111111,1.66666667 C4.77626984,1.66666667 2.77777778,3.65658609 2.77777778,6.11085428 C2.77777778,8.56563614 4.77626984,10.5555556 7.24111111,10.5555556 C8.1552381,10.5555556 9.00488095,10.2817747 9.71214286,9.81280298 C9.67603175,9.78301069 9.63940476,9.75424572 9.6043254,9.72393977 C8.55297619,8.81322033 7.94992063,7.4961957 7.94992063,6.11085428 C7.94992063,4.72602652 8.55297619,3.40951555 9.6043254,2.49828245 C9.63940476,2.4679765 9.67603175,2.43869787 9.71214286,2.40941924 C9.00488095,1.94044753 8.1552381,1.66666667 7.24111111,1.66666667 Z M10,2.61847892 C9.9427381,2.66368102 9.88599206,2.70991043 9.83079365,2.75768082 C8.89035714,3.57234582 8.29503968,4.77225593 8.29503968,6.11085428 C8.29503968,7.44996629 8.89035714,8.64936274 9.83079365,9.4645414 C9.88599206,9.51231179 9.9427381,9.55854121 10,9.6037433 C10.0572619,9.55854121 10.1140079,9.51231179 10.1692063,9.4645414 C11.1096429,8.64936274 11.7049603,7.44996629 11.7049603,6.11085428 C11.7049603,4.77225593 11.1096429,3.57234582 10.1692063,2.75768082 C10.1140079,2.70991043 10.0572619,2.66368102 10,2.61847892 Z" transform="translate(2 6)"/>
</svg>
