<svg xmlns="http://www.w3.org/2000/svg" xmlns:xlink="http://www.w3.org/1999/xlink" width="40" height="40" viewBox="0 0 40 40">
  <title>Google</title>
  <defs>
    <path id="google-40x40-a" d="M25.6976744,10.8837209 L13.3023256,10.8837209 L13.3023256,16.0232558 L20.4372093,16.0232558 C19.772093,19.2883721 16.9906977,21.1627907 13.3023256,21.1627907 C8.94883721,21.1627907 5.44186047,17.655814 5.44186047,13.3023256 C5.44186047,8.94883721 8.94883721,5.44186047 13.3023256,5.44186047 C15.1767442,5.44186047 16.8697674,6.10697674 18.2,7.19534884 L22.0697674,3.3255814 C19.7116279,1.26976744 16.6883721,0 13.3023256,0 C5.9255814,0 0,5.9255814 0,13.3023256 C0,20.6790698 5.9255814,26.6046512 13.3023256,26.6046512 C19.9534884,26.6046512 26,21.7674419 26,13.3023256 C26,12.5162791 25.8790698,11.6697674 25.6976744,10.8837209 Z"/>
    <path id="google-40x40-c" d="M25.6976744,10.8837209 L13.3023256,10.8837209 L13.3023256,16.0232558 L20.4372093,16.0232558 C19.772093,19.2883721 16.9906977,21.1627907 13.3023256,21.1627907 C8.94883721,21.1627907 5.44186047,17.655814 5.44186047,13.3023256 C5.44186047,8.94883721 8.94883721,5.44186047 13.3023256,5.44186047 C15.1767442,5.44186047 16.8697674,6.10697674 18.2,7.19534884 L22.0697674,3.3255814 C19.7116279,1.26976744 16.6883721,0 13.3023256,0 C5.9255814,0 0,5.9255814 0,13.3023256 C0,20.6790698 5.9255814,26.6046512 13.3023256,26.6046512 C19.9534884,26.6046512 26,21.7674419 26,13.3023256 C26,12.5162791 25.8790698,11.6697674 25.6976744,10.8837209 Z"/>
    <path id="google-40x40-e" d="M25.6976744,10.8837209 L13.3023256,10.8837209 L13.3023256,16.0232558 L20.4372093,16.0232558 C19.772093,19.2883721 16.9906977,21.1627907 13.3023256,21.1627907 C8.94883721,21.1627907 5.44186047,17.655814 5.44186047,13.3023256 C5.44186047,8.94883721 8.94883721,5.44186047 13.3023256,5.44186047 C15.1767442,5.44186047 16.8697674,6.10697674 18.2,7.19534884 L22.0697674,3.3255814 C19.7116279,1.26976744 16.6883721,0 13.3023256,0 C5.9255814,0 0,5.9255814 0,13.3023256 C0,20.6790698 5.9255814,26.6046512 13.3023256,26.6046512 C19.9534884,26.6046512 26,21.7674419 26,13.3023256 C26,12.5162791 25.8790698,11.6697674 25.6976744,10.8837209 Z"/>
    <path id="google-40x40-g" d="M25.6976744,10.8837209 L13.3023256,10.8837209 L13.3023256,16.0232558 L20.4372093,16.0232558 C19.772093,19.2883721 16.9906977,21.1627907 13.3023256,21.1627907 C8.94883721,21.1627907 5.44186047,17.655814 5.44186047,13.3023256 C5.44186047,8.94883721 8.94883721,5.44186047 13.3023256,5.44186047 C15.1767442,5.44186047 16.8697674,6.10697674 18.2,7.19534884 L22.0697674,3.3255814 C19.7116279,1.26976744 16.6883721,0 13.3023256,0 C5.9255814,0 0,5.9255814 0,13.3023256 C0,20.6790698 5.9255814,26.6046512 13.3023256,26.6046512 C19.9534884,26.6046512 26,21.7674419 26,13.3023256 C26,12.5162791 25.8790698,11.6697674 25.6976744,10.8837209 Z"/>
  </defs>
  <g fill="none" fill-rule="evenodd" transform="translate(7 7)">
    <mask id="google-40x40-b" fill="#fff">
      <use xlink:href="#google-40x40-a"/>
    </mask>
    <polygon fill="#FBBC05" fill-rule="nonzero" points="-1.209 21.163 -1.209 5.442 9.07 13.302" mask="url(#google-40x40-b)"/>
    <mask id="google-40x40-d" fill="#fff">
      <use xlink:href="#google-40x40-c"/>
    </mask>
    <polygon fill="#EA4335" fill-rule="nonzero" points="-1.209 5.442 9.07 13.302 13.302 9.614 27.814 7.256 27.814 -1.209 -1.209 -1.209" mask="url(#google-40x40-d)"/>
    <mask id="google-40x40-f" fill="#fff">
      <use xlink:href="#google-40x40-e"/>
    </mask>
    <polygon fill="#34A853" fill-rule="nonzero" points="-1.209 21.163 16.93 7.256 21.707 7.86 27.814 -1.209 27.814 27.814 -1.209 27.814" mask="url(#google-40x40-f)"/>
    <mask id="google-40x40-h" fill="#fff">
      <use xlink:href="#google-40x40-g"/>
    </mask>
    <polygon fill="#4285F4" fill-rule="nonzero" points="27.814 27.814 9.07 13.302 6.651 11.488 27.814 5.442" mask="url(#google-40x40-h)"/>
  </g>
</svg>
