<svg xmlns="http://www.w3.org/2000/svg" width="24" height="24" viewBox="0 0 24 24">
  <g fill="none" fill-rule="evenodd" transform="translate(2 6)">
    <path stroke="#CCC" stroke-width=".5" d="M1.06666667,-0.25 L18.9333333,-0.25 C19.6605083,-0.25 20.25,0.339491746 20.25,1.06666667 L20.25,11.4933333 C20.25,12.2205083 19.6605083,12.81 18.9333333,12.81 L1.06666667,12.81 C0.339491746,12.81 -0.25,12.2205083 -0.25,11.4933333 L-0.25,1.06666667 C-0.25,0.339491746 0.339491746,-0.25 1.06666667,-0.25 Z"/>
    <g transform="translate(4.286 1.429)">
      <path fill="#FFF" d="M5.09719494,0.413478698 C2.54771617,0.414477439 0.482449514,2.46314364 0.481945913,4.99120522 C0.482449514,7.51901712 2.54771617,9.56718395 5.09719494,9.56768332 C7.64692552,9.56718395 9.71294758,7.51901712 9.71370298,4.99120522 C9.71294758,2.46314364 7.64692552,0.414477439 5.09719494,0.413478698 L5.09719494,0.413478698 Z"/>
      <path fill="#004A98" d="M6.14443269,2.28312069 L6.14443269,7.69904008 C7.24203052,7.28106723 8.02160447,6.22764581 8.02361887,4.99120522 C8.02160447,3.75501432 7.24203052,2.70059417 6.14443269,2.28312069 Z M4.04945359,2.28362006 C2.95235937,2.70259165 2.17429622,3.75551369 2.17152641,4.99120522 C2.17429622,6.22664707 2.95235937,7.27956912 4.04945359,7.69804134 L4.04945359,2.28362006 Z M0.481945913,4.99120522 C0.482449514,7.51901712 2.54771617,9.56718395 5.09719494,9.56768332 C7.64692552,9.56718395 9.71294758,7.51901712 9.71370298,4.99120522 C9.71294758,2.46314364 7.64692552,0.414477439 5.09719494,0.413478698 C2.54771617,0.414477439 0.482449514,2.46314364 0.481945913,4.99120522 Z M5.08611573,9.99994435 C2.2961676,10.0128718 0,7.77169844 0,5.04338941 C0,2.06189969 2.2961676,-0.000499188804 5.08611573,9.06762061e-08 L6.39346326,9.06762061e-08 C9.15042554,-0.000499188804 11.6666667,2.06090095 11.6666667,5.04338941 C11.6666667,7.7706997 9.15042554,9.99994435 6.39346326,9.99994435 L5.08611573,9.99994435 Z"/>
    </g>
  </g>
</svg>
