<svg version="1.1" xmlns="http://www.w3.org/2000/svg" viewBox="0 0 27 19">
  <path d="M13.5351563,0 C6.76168488,0 2.81250563,0.398433516 1.6875,1.1953125 C0.562494375,1.99219148 0,4.78122609 0,9.5625 C0,14.3672115 0.562494375,17.1679648 1.6875,17.9648438 C2.81250563,18.7617227 6.76168488,19.1601562 13.5351563,19.1601562 C20.28519,19.1601562 24.2226506,18.7617227 25.3476562,17.9648438 C26.4726619,17.1679648 27.0351562,14.3672115 27.0351562,9.5625 C27.0351562,4.78122609 26.4726619,1.99219148 25.3476562,1.1953125 C24.2226506,0.398433516 20.28519,0 13.5351563,0 Z M13.921875,12.375 C13.2890593,12.7500019 12.5039109,13.2246065 11.5664062,13.7988281 L10.1601562,14.6601562 L10.1601562,4.5 L18.5976562,9.5625 L16.8398438,10.6171875 C15.6679629,11.320316 14.6953164,11.9062477 13.921875,12.375 Z"></path>
</svg>
