<svg xmlns="http://www.w3.org/2000/svg" width="40" height="40" viewBox="0 0 40 40">
  <path fill="#FFF" fill-rule="evenodd" d="M19.9611731,16.3293331 L20.0024539,17.0100332 L19.3144414,16.9266821 C16.8100761,16.6071698 14.6221965,15.5236064 12.7645628,13.7037755 L11.8563864,12.8008059 L11.6224622,13.4676142 C11.1270932,14.954041 11.4435789,16.5238188 12.4755976,17.5795986 C13.0260076,18.1630558 12.9021653,18.2464069 11.9527081,17.8991109 C11.6224622,17.7879762 11.3334969,17.7046251 11.3059764,17.7463007 C11.2096547,17.8435435 11.5399007,19.1077009 11.8013454,19.6078071 C12.1591119,20.3023991 12.8884051,20.9830992 13.6864995,21.3859625 L14.3607517,21.7054748 L13.5626573,21.7193667 C12.7920833,21.7193667 12.7645628,21.7332585 12.8471243,22.0249871 C13.1223293,22.9279567 14.209389,23.8864936 15.4202909,24.3032487 L16.2734264,24.5949774 L15.5303729,25.0395162 C14.429553,25.6785408 13.1360896,26.0397286 11.8426261,26.0675123 C11.2234149,26.0814042 10.7142857,26.1369715 10.7142857,26.178647 C10.7142857,26.3175654 12.3930361,27.0955084 13.3700138,27.4011289 C16.3009468,28.3040984 19.7822899,27.9151269 22.3967372,26.3731328 C24.2543708,25.2756775 26.1120045,23.0946587 26.9789002,20.9830992 C27.4467486,19.8578602 27.9145971,17.801868 27.9145971,16.8155474 C27.9145971,16.1765228 27.9558778,16.0931718 28.7264518,15.3291206 C29.18054,14.8845818 29.6071077,14.3983674 29.6896692,14.259449 C29.8272717,13.9955041 29.8135115,13.9955041 29.1117388,14.2316654 C27.9421176,14.6484205 27.7769946,14.5928532 28.3549251,13.9677204 C28.7814928,13.5231816 29.290622,12.7174549 29.290622,12.4812936 C29.290622,12.4396181 29.0842183,12.5090773 28.850294,12.6341038 C28.6026095,12.7730222 28.0521996,12.9813998 27.6393921,13.1064264 L26.8963387,13.3425876 L26.2220865,12.884157 C25.8505597,12.6341038 25.3276703,12.3562671 25.0524653,12.272916 C24.3506926,12.0784303 23.2773931,12.106214 22.6444217,12.3284834 C20.9243905,12.9536162 19.8373309,14.5650695 19.9611731,16.3293331 Z"/>
</svg>
